<svg xmlns="http://www.w3.org/2000/svg" xmlns:xlink="http://www.w3.org/1999/xlink" viewBox="0 0 179.3 732.93"><defs><linearGradient id="linear-gradient" x1="41" y1="307.23" x2="66.23" y2="307.23" gradientUnits="userSpaceOnUse"><stop offset="0" stop-color="#5b6053"/><stop offset="0.13" stop-color="#72766a"/><stop offset="0.37" stop-color="#979a8f"/><stop offset="0.5" stop-color="#a6a89e"/><stop offset="0.6" stop-color="#a0a298"/><stop offset="0.74" stop-color="#909388"/><stop offset="0.89" stop-color="#75796e"/><stop offset="1" stop-color="#5d6257"/></linearGradient><linearGradient id="linear-gradient-2" x1="51.88" y1="306.54" x2="77.1" y2="306.54" gradientTransform="matrix(-1, 0, 0, 1, 189.12, 0)" xlink:href="#linear-gradient"/><linearGradient id="linear-gradient-3" x1="69.38" y1="215.27" x2="109.92" y2="215.27" xlink:href="#linear-gradient"/></defs><title>Asset 1user</title><g id="Layer_2" data-name="Layer 2"><g id="rocketWrapper"><g id="flame"><path id="flameYellow" d="M87.58,430.54C87,430.54,0,732.93,0,732.93L179.3,732,91.72,430.54Z" fill="#ec2227"/><path id="flamePink" d="M87.58,430.54c-.6,0-68,302.39-68,302.39L160.37,732,91.72,430.54Z" fill="#f15b27"/><path id="flameRed" d="M87.77,430.54c-.3,0-32.14,302.39-32.14,302.39l69.82-.92L91.72,430.54Z" fill="#fbb03b"/></g><g id="rocket"><g id="rocketLeft"><path d="M41,440.23h0a2.58,2.58,0,0,1,.56-1.63l.68-.82a2.52,2.52,0,0,0,.56-1.61l.9-222.59a2.61,2.61,0,0,1,.18-1L57.82,175a4.44,4.44,0,0,1,4-3h0c2.44,0,4.42,2.37,4.42,5.3v263a2.13,2.13,0,0,1-1.92,2.29H42.91A2.12,2.12,0,0,1,41,440.23Z" fill="url(#linear-gradient)"/><g opacity="0.65"><path d="M64.28,394.88a28.53,28.53,0,0,0-19.54,0,2.54,2.54,0,0,1-3.22-1.76l-.2-.6a3,3,0,0,1,1.79-3.83,33.13,33.13,0,0,1,22.81,0,3.06,3.06,0,0,1,1.79,3.83l-.21.6A2.53,2.53,0,0,1,64.28,394.88Z" fill="#818181"/><path d="M64.28,394.92a38.73,38.73,0,0,0-19.54,0,2.78,2.78,0,0,1-3.22-1.28c-.07-.14-.13-.29-.2-.43-.53-1.09.24-2.38,1.79-2.79a45,45,0,0,1,22.81,0c1.54.41,2.31,1.7,1.79,2.79l-.21.43A2.77,2.77,0,0,1,64.28,394.92Z" fill="#676767"/></g><g opacity="0.65"><path d="M63.41,339.1a50.63,50.63,0,0,0-17.79,0,3.12,3.12,0,0,1-2.94-.8L42.5,338c-.48-.68.22-1.49,1.63-1.74a58.92,58.92,0,0,1,20.77,0c1.4.25,2.1,1.06,1.63,1.74l-.19.27A3.11,3.11,0,0,1,63.41,339.1Z" fill="#676767"/><path d="M63.41,339.12a89.62,89.62,0,0,0-17.79,0,4.75,4.75,0,0,1-2.94-.45l-.18-.16c-.48-.38.22-.84,1.63-1a103,103,0,0,1,20.77,0c1.4.15,2.1.61,1.63,1l-.19.16A4.73,4.73,0,0,1,63.41,339.12Z" fill="#4e4e4e"/></g><g opacity="0.65"><path d="M63.41,246a71.56,71.56,0,0,0-17.79,0,3.94,3.94,0,0,1-2.94-.57l-.18-.19c-.48-.48.22-1.06,1.63-1.24a82,82,0,0,1,20.77,0c1.4.18,2.1.76,1.63,1.24l-.19.19A3.92,3.92,0,0,1,63.41,246Z" fill="#676767"/><path d="M63.41,246.06a175.94,175.94,0,0,0-17.79,0,9,9,0,0,1-2.94-.23l-.18-.07c-.48-.2.22-.43,1.63-.5a205.56,205.56,0,0,1,20.77,0c1.4.07,2.1.3,1.63.5l-.19.07A9,9,0,0,1,63.41,246.06Z" fill="#4e4e4e"/></g><g opacity="0.65"><path d="M63.53,215.73a65.49,65.49,0,0,0-17.13,0,3.77,3.77,0,0,1-2.83-.57l-.18-.2c-.46-.48.22-1.06,1.57-1.24a77,77,0,0,1,20,0c1.36.18,2,.76,1.57,1.24-.06.07-.12.13-.17.2A3.78,3.78,0,0,1,63.53,215.73Z" fill="#676767"/><path d="M63.53,215.76a163.13,163.13,0,0,0-17.13,0,8.63,8.63,0,0,1-2.83-.23l-.18-.08c-.46-.19.22-.42,1.57-.5a190.61,190.61,0,0,1,20,0c1.36.08,2,.31,1.57.5l-.17.08A8.66,8.66,0,0,1,63.53,215.76Z" fill="#4e4e4e"/></g></g><g id="rocketRight"><path d="M137.25,438.4h0a2.52,2.52,0,0,0-.56-1.61L136,436a2.61,2.61,0,0,1-.56-1.6l-.89-220.7a2.61,2.61,0,0,0-.19-1l-13.94-37.31a4.42,4.42,0,0,0-4-3h0c-2.43,0-4.41,2.35-4.41,5.25V438.4a2.12,2.12,0,0,0,1.91,2.28h21.41A2.12,2.12,0,0,0,137.25,438.4Z" fill="url(#linear-gradient-2)"/><g opacity="0.65"><path d="M114,393.44a28.74,28.74,0,0,1,19.53,0,2.54,2.54,0,0,0,3.23-1.74c.06-.2.13-.4.2-.6a3,3,0,0,0-1.79-3.8,33.36,33.36,0,0,0-22.81,0,3,3,0,0,0-1.79,3.8l.2.6A2.54,2.54,0,0,0,114,393.44Z" fill="#818181"/><path d="M114,393.48a38.92,38.92,0,0,1,19.53,0,2.8,2.8,0,0,0,3.23-1.27c.06-.14.13-.28.2-.43.52-1.07-.25-2.36-1.79-2.76a45.2,45.2,0,0,0-22.81,0c-1.55.4-2.31,1.69-1.79,2.76.07.14.13.29.2.43A2.8,2.8,0,0,0,114,393.48Z" fill="#676767"/></g><g opacity="0.65"><path d="M114.84,338.13a51.6,51.6,0,0,1,17.79,0,3.14,3.14,0,0,0,2.93-.79l.19-.27c.47-.67-.23-1.47-1.63-1.72a59.39,59.39,0,0,0-20.77,0c-1.41.25-2.11,1-1.63,1.72l.18.27A3.15,3.15,0,0,0,114.84,338.13Z" fill="#676767"/><path d="M114.84,338.16a89.62,89.62,0,0,1,17.79,0,4.88,4.88,0,0,0,2.93-.45l.19-.15c.47-.39-.23-.84-1.63-1a104.46,104.46,0,0,0-20.77,0c-1.41.15-2.11.6-1.63,1l.18.15A4.9,4.9,0,0,0,114.84,338.16Z" fill="#4e4e4e"/></g><g opacity="0.65"><path d="M114.84,245.86a71.56,71.56,0,0,1,17.79,0,4,4,0,0,0,2.93-.56l.19-.19c.47-.48-.22-1.06-1.63-1.24a83.93,83.93,0,0,0-20.77,0c-1.41.18-2.11.76-1.63,1.24l.18.19A4,4,0,0,0,114.84,245.86Z" fill="#676767"/><path d="M114.84,245.89c5.74-.29,12-.29,17.79,0a9,9,0,0,0,2.93-.23l.19-.07c.47-.19-.22-.42-1.63-.49a205.56,205.56,0,0,0-20.77,0c-1.41.07-2.11.3-1.63.49l.18.07A9,9,0,0,0,114.84,245.89Z" fill="#4e4e4e"/></g><g opacity="0.65"><path d="M114.72,215.82a66.37,66.37,0,0,1,17.13,0,3.78,3.78,0,0,0,2.83-.57l.17-.19c.46-.48-.21-1.05-1.57-1.23a77,77,0,0,0-20,0c-1.35.18-2,.75-1.57,1.23l.18.19A3.77,3.77,0,0,0,114.72,215.82Z" fill="#676767"/><path d="M114.72,215.84a168.75,168.75,0,0,1,17.13,0,8.72,8.72,0,0,0,2.83-.22l.17-.08c.46-.19-.21-.42-1.57-.49a190.61,190.61,0,0,0-20,0c-1.35.07-2,.3-1.57.49l.18.08A8.69,8.69,0,0,0,114.72,215.84Z" fill="#4e4e4e"/></g></g><g id="rocketMiddle"><path d="M109.92,430.54H69.38V46.24C69.38,33.88,79.36,0,90.55,0h0c11.2,0,19.37,33.88,19.37,46.24Z" fill="url(#linear-gradient-3)"/><path d="M69.38,384.27a81.27,81.27,0,0,1,40.09.53" fill="none" stroke="#818181" stroke-linecap="round" stroke-miterlimit="10" stroke-width="3"/><path d="M69.38,385.27a81.2,81.2,0,0,1,40.09.52" fill="none" stroke="#676767" stroke-linecap="round" stroke-miterlimit="10" stroke-width="2"/><path d="M69.4,179.55s21.15-5.05,40.07-.08" fill="none" stroke="#989898" stroke-linecap="round" stroke-miterlimit="10"/><path d="M69.4,154.69s21.15-5.05,40.07-.07" fill="none" stroke="#989898" stroke-linecap="round" stroke-miterlimit="10"/><path d="M69.4,130.83s21.15-5.05,40.07-.08" fill="none" stroke="#989898" stroke-linecap="round" stroke-miterlimit="10"/><path d="M87,109.87s6.31-6,8.11-6,3.57-.6,1.8,4c-1.35,3.48-1.8,5,1.8,5s6.23-7.21,5-11.43c-.9-3-4.06-4.47-8.56-2.49s-9,9.95-9,9.95Z" fill="#384661"/><path d="M103.62,73.58s-12.62,5-19.82-1Z" fill="#384661"/><path d="M90.1,73.58s-6.3-3-1.8-12.93c0,0,9.91,5,1.8,12.93" fill="#603a17"/><path d="M74.81,121.48c0,.85.07,1.28.22,1.28s.11,0,.14.14a.77.77,0,0,1,0,.32,1,1,0,0,1-.11.33c-.06.09-.12.14-.19.14-.44,0-.62-.94-.55-2.69a10.35,10.35,0,0,1-.62,1.63c-.41.79-.75,1.19-1,1.22a.26.26,0,0,1-.19,0c-.24-.19-.3-.75-.2-1.68l0-.23a9.66,9.66,0,0,1,.73-2.53,4.17,4.17,0,0,1,1.63-2.07c0-.32.08-.61.13-.87a7.76,7.76,0,0,1,.46-1.73c.09-.25.17-.38.23-.39s.11.16.12.51a5.11,5.11,0,0,1,0,.81,27.26,27.26,0,0,1-.62,3.1Q74.82,120.37,74.81,121.48Zm-1.41-1.63a8.07,8.07,0,0,0-.59,2l0,.12c-.08.58,0,.86.12.85h0c.2,0,.5-.52.9-1.52a23.72,23.72,0,0,0,.74-2.77l0-.33A3.62,3.62,0,0,0,73.4,119.85Z" fill="#333"/><path d="M78.52,118.09a3.38,3.38,0,0,1,0,.73c-.17,2.07-.18,3.18,0,3.34s.09.1.11.21a1.34,1.34,0,0,1,0,.2l0,.16a.53.53,0,0,1-.14.27.15.15,0,0,1-.11.06.06.06,0,0,1-.07,0c-.29-.28-.41-1.05-.34-2.33-.09.31-.19.65-.32,1q-.54,1.65-1.14,1.71h-.12c-.19,0-.34-.22-.44-.53a3.41,3.41,0,0,1-.12-1.26c0-.23,0-.45,0-.65a5.69,5.69,0,0,1,1-2.87,2.25,2.25,0,0,1,1.57-1,1.81,1.81,0,0,1,.46,0c.06,0,.1.09.12.19a.74.74,0,0,1,0,.26.22.22,0,0,1,0,.08.59.59,0,0,1-.12.29.17.17,0,0,1-.14.1h0A.53.53,0,0,0,78.52,118.09Zm-1.61,1a4.48,4.48,0,0,0-.6,1.91c0,.16,0,.33,0,.51,0,.7.06,1,.27,1h0c.22,0,.46-.39.7-1.12.17-.52.47-1.57.9-3.16l0-.13A2,2,0,0,0,76.91,119.06Z" fill="#333"/><path d="M80.14,118.13A1.9,1.9,0,0,1,81.66,117h.18a.22.22,0,0,1,.13.18.59.59,0,0,1,0,.27.13.13,0,0,1,0,.06.57.57,0,0,1-.11.31.19.19,0,0,1-.14.1h-.17a1.27,1.27,0,0,0-.89.48,3.47,3.47,0,0,0-.68,1.71q0,.25-.18,2.82v.06a.83.83,0,0,1-.08.28c0,.11-.11.17-.17.18h0a.17.17,0,0,1-.14-.09.56.56,0,0,1-.05-.3c.11-1.77.18-2.74.19-2.92v0c0-.12,0-.44.08-1s.1-1.28.16-2a.8.8,0,0,1,.09-.32c0-.09.1-.14.16-.15s.11,0,.15.13a.73.73,0,0,1,0,.31C80.2,117.37,80.17,117.71,80.14,118.13Z" fill="#333"/><path d="M82.93,117l.06-.88c0-.55.06-1,.08-1.31s0-.51,0-.59a.71.71,0,0,1,.09-.32c0-.09.1-.14.16-.14s.11,0,.14.12a.64.64,0,0,1,.05.32s0,.58-.1,1.64c0,.38,0,.76-.07,1.13l.83-.13c.07,0,.12,0,.16.13a.77.77,0,0,1,0,.32,1,1,0,0,1-.08.33c0,.09-.11.14-.17.14a8,8,0,0,1-.83.11c0,.27,0,.53,0,.77-.11,2.54-.06,3.81.15,3.8a.34.34,0,0,0,.18-.08l.18-.09h0s.09,0,.13.08a.66.66,0,0,1,.07.3v.07A.67.67,0,0,1,84,123a.26.26,0,0,1-.17.17h0a.93.93,0,0,1-.41.16.37.37,0,0,1-.35-.21c-.23-.36-.29-1.77-.18-4.22,0-.31,0-.64,0-1a.92.92,0,0,1-.55-.11.4.4,0,0,1-.09-.26.28.28,0,0,1,0-.13.85.85,0,0,1,0-.22.45.45,0,0,1,.14-.23l.07,0a.14.14,0,0,1,.1,0A.71.71,0,0,0,82.93,117Z" fill="#333"/><path d="M85.44,117.48c.32-.68.69-1,1.12-1.11.52.11.76.95.73,2.53,0,.52-.06,1.17-.14,2C87,122,87,122.5,87,122.52v.1a.64.64,0,0,1,0,.24.33.33,0,0,1-.15.2h-.06s-.08,0-.11-.07a.59.59,0,0,1-.1-.29c.1-1.11.19-2.22.28-3.32,0-.17,0-.32,0-.46a4.75,4.75,0,0,0-.09-1.32c-.07-.25-.16-.37-.29-.36l-.11,0a1.64,1.64,0,0,0-.53.74,6.69,6.69,0,0,0-.45,1.45c-.06,1.21-.1,2.18-.14,2.91a.62.62,0,0,1-.08.31c0,.1-.11.15-.17.15s-.12,0-.16-.13a.68.68,0,0,1,0-.33v-.33a10.4,10.4,0,0,1,0-1.37,11.48,11.48,0,0,1,.19-1.52c.12-2.39.21-4.19.27-5.41a.79.79,0,0,1,.07-.32c0-.09.1-.14.16-.14s.11,0,.15.13a.8.8,0,0,1,0,.32C85.56,114.73,85.51,116,85.44,117.48Z" fill="#333"/><path d="M91,116.54h0c.23,0,.43.22.6.67a6.27,6.27,0,0,1,.3,1.71c0,.16,0,.31,0,.47a8.06,8.06,0,0,1-.12,1.44,2.58,2.58,0,0,1-.58,1.37,1,1,0,0,1-.66.34.65.65,0,0,1-.55-.37,4.32,4.32,0,0,1-.45-2.07v-.39a8.11,8.11,0,0,1,.27-2.11c.23-.82.54-1.27.93-1.34C90.86,116.26,90.93,116.35,91,116.54Zm-.75,1.65A7.4,7.4,0,0,0,90,120a3.17,3.17,0,0,0,.22,1.42.38.38,0,0,0,.33.25.69.69,0,0,0,.45-.25,3,3,0,0,0,.46-2c0-.07,0-.15,0-.23a5.32,5.32,0,0,0-.14-1.19c-.09-.34-.19-.51-.32-.51h0a.14.14,0,0,1-.1,0c-.07,0-.14-.1-.18-.29C90.52,117.27,90.36,117.6,90.22,118.19Z" fill="#333"/><path d="M93.05,116.7c0-.79-.06-1.35-.07-1.68v-.31c.06-.86.35-1.3.88-1.31.06,0,.11,0,.16.14a.79.79,0,0,1,.07.32.74.74,0,0,1,0,.32c-.05.09-.1.13-.16.13h0a.35.35,0,0,0-.35.16,1.41,1.41,0,0,0-.07.64v.14l.06,1.32c.24-.08.49-.14.75-.2.06,0,.11,0,.16.14a.88.88,0,0,1,0,.64c-.05.09-.1.13-.16.13a6.44,6.44,0,0,0-.72.2q0,.6.09,1.32c.17,2.27.27,3.56.29,3.87v0a.63.63,0,0,1-.05.31c0,.09-.1.14-.16.14h0c-.06,0-.11,0-.16-.13a.67.67,0,0,1-.09-.31c0-.59-.08-1.35-.15-2.29s-.13-1.8-.16-2.34c0-.16,0-.31,0-.45l-.54.19H92.5a.15.15,0,0,1-.11-.06.56.56,0,0,1-.11-.27s0-.09,0-.13a.89.89,0,0,1,0-.22.31.31,0,0,1,.13-.21Z" fill="#333"/><path d="M98.37,117.65a1,1,0,0,0-.23,0c-.37,0-.66.22-.89.73a3.8,3.8,0,0,0-.31,1.83v.06a1.77,1.77,0,0,0,.56,1.44.65.65,0,0,0,.32.11q.5,0,1.17-.75a.12.12,0,0,1,.12-.08h0a.31.31,0,0,1,.16.2.58.58,0,0,1,.06.26v.08a.48.48,0,0,1-.07.29,2.06,2.06,0,0,1-1.46.91.93.93,0,0,1-.51-.2,2.9,2.9,0,0,1-.82-2.12,2.64,2.64,0,0,1,0-.29,5.37,5.37,0,0,1,.38-2.38c.3-.7.71-1,1.22-1l.32.06a.39.39,0,0,1,.16.22.85.85,0,0,1,0,.23.45.45,0,0,1,0,.11.55.55,0,0,1-.09.29.13.13,0,0,1-.11.07Z" fill="#333"/><path d="M100.88,116.86h0c.23,0,.45.25.65.71a6.78,6.78,0,0,1,.44,1.73c0,.16,0,.32,0,.47a6.92,6.92,0,0,1,0,1.44,2.22,2.22,0,0,1-.47,1.33.89.89,0,0,1-.64.31.79.79,0,0,1-.58-.41,4.78,4.78,0,0,1-.6-2.1c0-.13,0-.27,0-.4a7.41,7.41,0,0,1,.11-2.09c.16-.81.43-1.24.82-1.29C100.75,116.58,100.83,116.68,100.88,116.86Zm-.62,1.61a7.13,7.13,0,0,0-.06,1.75,3.62,3.62,0,0,0,.33,1.44c.11.18.22.27.35.28a.63.63,0,0,0,.43-.23c.29-.29.39-.94.3-2a1.94,1.94,0,0,1,0-.24,5.51,5.51,0,0,0-.24-1.2c-.11-.35-.23-.52-.36-.53h0s-.06,0-.09,0-.15-.1-.21-.3C100.49,117.57,100.35,117.89,100.26,118.47Z" fill="#333"/><path d="M105.25,121.37c.19.87.37,1.32.52,1.35s.12.07.18.16a.9.9,0,0,1,.1.34.79.79,0,0,1,0,.32.17.17,0,0,1-.16.11c-.46-.13-.86-1.08-1.2-2.86a9.34,9.34,0,0,1-.24,1.56c-.24.72-.5,1.07-.76,1.05a.3.3,0,0,1-.2-.09,2.77,2.77,0,0,1-.6-1.74l0-.24a7.59,7.59,0,0,1,.15-2.45,2.35,2.35,0,0,1,1.17-1.81c0-.32-.05-.61-.07-.87a7.43,7.43,0,0,1,.06-1.68c0-.24.1-.35.15-.35s.15.19.25.54a8.06,8.06,0,0,1,.14.82,26.17,26.17,0,0,1,.09,3Q105,120.23,105.25,121.37Zm-1.83-1.93a6.4,6.4,0,0,0-.14,2l0,.12c0,.58.16.88.32.9h0c.19,0,.38-.45.56-1.39a21.62,21.62,0,0,0,.1-2.69l0-.33A2,2,0,0,0,103.42,119.44Z" fill="#333"/><path d="M106.53,120.07c0,.21,0,.42.06.61a3.88,3.88,0,0,0,.51,1.69.63.63,0,0,0,.44.31c.29,0,.62-.25,1-.85,0-.07.08-.1.13-.09h0a.38.38,0,0,1,.18.18,1.31,1.31,0,0,1,.09.28v.06a.55.55,0,0,1,0,.3c-.42.71-.85,1.05-1.26,1a.77.77,0,0,1-.31-.11,2.91,2.91,0,0,1-1-1.86,8,8,0,0,1-.21-1.15,8.17,8.17,0,0,1,0-1.56c.07-1,.29-1.51.67-1.67l.25,0h0c.32,0,.58.29.8.77a3.23,3.23,0,0,1,.26.92,2.6,2.6,0,0,1,0,.56,1.22,1.22,0,0,1-.38,1.07.46.46,0,0,1-.32.07A1.55,1.55,0,0,1,106.53,120.07Zm0-.92c.3.34.54.52.73.54a.21.21,0,0,0,.17,0c.16-.09.22-.33.17-.73a1.33,1.33,0,0,0-.34-.82.28.28,0,0,0-.18-.1c-.14,0-.27.1-.41.34A2,2,0,0,0,106.53,119.15Z" fill="#333"/><ellipse cx="84.7" cy="86.01" rx="2.7" ry="3.48" fill="#384661"/><ellipse cx="95.06" cy="86.51" rx="4.05" ry="1.99" fill="#384661"/><ellipse cx="106.32" cy="87.5" rx="1.8" ry="3.98" fill="#384661"/></g></g></g></g></svg>